<?xml version="1.0" standalone="no"?>
<!DOCTYPE svg PUBLIC "-//W3C//DTD SVG 20010904//EN"
 "http://www.w3.org/TR/2001/REC-SVG-20010904/DTD/svg10.dtd">
<svg version="1.0" xmlns="http://www.w3.org/2000/svg"
 width="512.000000pt" height="512.000000pt" viewBox="0 0 512.000000 512.000000"
 preserveAspectRatio="xMidYMid meet">
<metadata>
Created by potrace 1.14, written by Peter Selinger 2001-2017
</metadata>
<g transform="translate(0.000000,512.000000) scale(0.100000,-0.100000)"
fill="#000000" stroke="none">
<path d="M3100 4783 c-99 -34 -169 -105 -204 -207 -14 -42 -16 -100 -16 -393
l0 -343 -582 0 c-707 -1 -713 -1 -888 -36 -523 -107 -970 -444 -1214 -918 -25
-49 -57 -121 -72 -160 -14 -39 -30 -80 -35 -91 -25 -61 -55 -195 -74 -330 -11
-84 -12 -402 -1 -485 61 -457 243 -833 553 -1147 148 -149 381 -321 467 -344
125 -34 249 66 242 196 -3 69 -26 111 -112 207 -137 153 -192 296 -200 513
-10 279 82 511 281 710 106 106 200 169 326 219 153 60 146 59 752 63 l557 4
1 -340 c1 -188 2 -344 3 -348 1 -5 6 -23 10 -41 19 -80 87 -160 170 -201 90
-44 228 -34 311 22 30 21 155 130 250 219 27 25 61 56 75 68 14 12 39 34 55
49 84 75 245 220 280 252 22 20 135 121 250 225 195 174 271 243 299 269 6 6
56 51 111 100 55 49 105 94 111 100 45 42 177 159 198 176 73 57 123 186 112
287 -11 97 -46 151 -176 267 -36 32 -85 76 -110 99 -131 118 -225 203 -242
218 -25 21 -154 138 -189 169 -14 13 -63 58 -109 99 -80 72 -119 107 -255 230
-85 77 -224 201 -249 223 -12 10 -55 49 -96 87 -41 38 -84 77 -96 87 -12 10
-58 52 -104 93 -92 84 -119 104 -170 126 -50 23 -165 26 -220 7z"/>
</g>
</svg>
